<svg width="20" height="20" viewBox="0 0 20 20" fill="none" xmlns="http://www.w3.org/2000/svg">
<path fill-rule="evenodd" clip-rule="evenodd" d="M4.75 1.62451C2 1.62451 2 1.83251 2 4.37451V4.39951C2 5.50651 2 6.30651 2.271 6.64451C2.536 6.97251 3.323 7.12451 4.75 7.12451C6.177 7.12451 6.964 6.97151 7.229 6.64351C7.5 6.30651 7.5 5.50651 7.5 4.39851C7.5 1.83251 7.5 1.62451 4.75 1.62451ZM4.75 8.62451C3.064 8.62451 1.799 8.44751 1.104 7.58451C0.5 6.83551 0.5 5.81351 0.5 4.39951L1.25 4.37451H0.5C0.5 1.50451 0.681 0.124512 4.75 0.124512C8.819 0.124512 9 1.50451 9 4.37451C9 5.81251 9 6.83551 8.396 7.58451C7.701 8.44751 6.436 8.62451 4.75 8.62451Z" fill="#1D192B"/>
<path fill-rule="evenodd" clip-rule="evenodd" d="M15.75 1.62451C13 1.62451 13 1.83251 13 4.37451V4.39951C13 5.50651 13 6.30651 13.271 6.64451C13.536 6.97251 14.323 7.12451 15.75 7.12451C17.177 7.12451 17.964 6.97151 18.229 6.64351C18.5 6.30651 18.5 5.50651 18.5 4.39851C18.5 1.83251 18.5 1.62451 15.75 1.62451ZM15.75 8.62451C14.064 8.62451 12.799 8.44751 12.104 7.58451C11.5 6.83551 11.5 5.81351 11.5 4.39951L12.25 4.37451H11.5C11.5 1.50451 11.681 0.124512 15.75 0.124512C19.819 0.124512 20 1.50451 20 4.37451C20 5.81251 20 6.83551 19.396 7.58451C18.701 8.44751 17.436 8.62451 15.75 8.62451Z" fill="#1D192B"/>
<path fill-rule="evenodd" clip-rule="evenodd" d="M4.75 12.6245C2 12.6245 2 12.8325 2 15.3745V15.3995C2 16.5065 2 17.3065 2.271 17.6445C2.536 17.9725 3.323 18.1245 4.75 18.1245C6.177 18.1245 6.964 17.9715 7.229 17.6435C7.5 17.3065 7.5 16.5065 7.5 15.3985C7.5 12.8325 7.5 12.6245 4.75 12.6245ZM4.75 19.6245C3.064 19.6245 1.799 19.4475 1.104 18.5845C0.5 17.8355 0.5 16.8135 0.5 15.3995L1.25 15.3745H0.5C0.5 12.5045 0.681 11.1245 4.75 11.1245C8.819 11.1245 9 12.5045 9 15.3745C9 16.8125 9 17.8355 8.396 18.5845C7.701 19.4475 6.436 19.6245 4.75 19.6245Z" fill="#1D192B"/>
<path fill-rule="evenodd" clip-rule="evenodd" d="M15.75 12.6245C13 12.6245 13 12.8325 13 15.3745V15.3995C13 16.5065 13 17.3065 13.271 17.6445C13.536 17.9725 14.323 18.1245 15.75 18.1245C17.177 18.1245 17.964 17.9715 18.229 17.6435C18.5 17.3065 18.5 16.5065 18.5 15.3985C18.5 12.8325 18.5 12.6245 15.75 12.6245ZM15.75 19.6245C14.064 19.6245 12.799 19.4475 12.104 18.5845C11.5 17.8355 11.5 16.8135 11.5 15.3995L12.25 15.3745H11.5C11.5 12.5045 11.681 11.1245 15.75 11.1245C19.819 11.1245 20 12.5045 20 15.3745C20 16.8125 20 17.8355 19.396 18.5845C18.701 19.4475 17.436 19.6245 15.75 19.6245Z" fill="#1D192B"/>
</svg>
