<svg width="196" height="40" viewBox="0 0 196 40" fill="none" xmlns="http://www.w3.org/2000/svg">
<path d="M26.6068 34.6028C24.4798 38.1669 19.3174 38.1669 17.1904 34.6028L1.48913 8.2926C-0.691876 4.63794 1.94135 4.03197e-06 6.19734 4.40404e-06L37.5998 7.14933e-06C41.8558 7.5214e-06 44.489 4.63794 42.308 8.2926L26.6068 34.6028Z" fill="#FED254"/>
<path d="M45.7966 6.9906H55.7782C58.0901 6.9906 60.1407 7.42283 61.9299 8.2873C63.7192 9.15176 65.1063 10.3781 66.0914 11.9663C67.0765 13.5545 67.5691 15.4141 67.5691 17.5451C67.5691 19.6761 67.0765 21.5357 66.0914 23.1239C65.1063 24.7121 63.7192 25.9385 61.9299 26.8029C60.1407 27.6674 58.0901 28.0996 55.7782 28.0996H45.7966V6.9906ZM55.5369 23.335C57.3463 23.335 58.7937 22.8224 59.8794 21.7971C60.9851 20.7718 61.5379 19.3545 61.5379 17.5451C61.5379 15.7358 60.9851 14.3184 59.8794 13.2931C58.7937 12.2679 57.3463 11.7552 55.5369 11.7552H51.7675V23.335H55.5369Z" fill="#1D192B"/>
<path d="M96.7047 23.4858V28.0996H79.7572V6.9906H96.3127V11.6044H85.6677V15.1628H95.0461V19.6259H85.6677V23.4858H96.7047Z" fill="#1D192B"/>
<path d="M129.148 6.9906V24.7562C129.148 26.6027 127.652 28.0996 125.805 28.0996C124.809 28.0996 123.865 27.6559 123.23 26.8891L114.915 16.8515V28.0996H109.065V6.9906H113.98L123.298 18.2387V6.9906H129.148Z" fill="#1D192B"/>
<path d="M160.259 23.3652V28.0996H144.091C142.578 28.0996 141.351 26.8732 141.351 25.3604C141.351 24.7145 141.58 24.0894 141.996 23.5955L151.996 11.7251H141.623V6.9906H157.068C158.58 6.9906 159.807 8.217 159.807 9.72984C159.807 10.3757 159.579 11.0008 159.162 11.4947L149.162 23.3652H160.259Z" fill="#1D192B"/>
<path d="M26.0106 21.9312H19.157L22.5838 28.0995L26.0106 21.9312Z" fill="#EF314E"/>
<path d="M18.7794 9.20701L10.2473 28.0994H16.4155L21.6646 15.8516C22.0109 15.0435 23.1566 15.0435 23.5029 15.8516L28.752 28.0994H34.9202L27.0393 9.30646C26.4161 7.82036 24.962 6.85336 23.3505 6.85336H22.4249C20.8528 6.85336 19.4264 7.77425 18.7794 9.20701Z" fill="#1D192B"/>
<path d="M179.531 13.0217L186.384 13.0217L182.957 6.85348L179.531 13.0217Z" fill="#EF314E"/>
<path d="M186.95 25.3303L195.294 6.85343L189.126 6.85343L183.877 19.1013C183.53 19.9094 182.385 19.9094 182.038 19.1013L176.789 6.85343L170.621 6.85343L178.32 25.2133C179.054 26.9618 180.764 28.0995 182.66 28.0995C184.51 28.0995 186.188 27.016 186.95 25.3303Z" fill="#1D192B"/>
<path d="M152.702 34.6473V39.9246H151.895L148.985 36.3511V39.9246H148.013V34.6473H148.819L151.729 38.2208V34.6473H152.702Z" fill="#1D192B"/>
<path d="M158.828 39.1029V39.9246H154.87V34.6473H158.722V35.4691H155.85V36.8412H158.398V37.6478H155.85V39.1029H158.828Z" fill="#1D192B"/>
<path d="M161.745 35.4766H159.996V34.6473H164.474V35.4766H162.725V39.9246H161.745V35.4766Z" fill="#1D192B"/>
<path d="M173.602 34.6473L171.853 39.9246H170.813L169.508 36.0194L168.182 39.9246H167.134L165.385 34.6473H166.402L167.714 38.6581L169.079 34.6473H169.983L171.318 38.6807L172.667 34.6473H173.602Z" fill="#1D192B"/>
<path d="M177.561 40C177.023 40 176.538 39.8844 176.106 39.6532C175.673 39.417 175.334 39.0928 175.088 38.6807C174.842 38.2635 174.718 37.7986 174.718 37.286C174.718 36.7733 174.842 36.3109 175.088 35.8988C175.334 35.4817 175.673 35.1575 176.106 34.9263C176.538 34.6901 177.023 34.572 177.561 34.572C178.098 34.572 178.583 34.6901 179.016 34.9263C179.448 35.1575 179.787 35.4791 180.033 35.8913C180.28 36.3034 180.403 36.7683 180.403 37.286C180.403 37.8036 180.28 38.2685 180.033 38.6807C179.787 39.0928 179.448 39.417 179.016 39.6532C178.583 39.8844 178.098 40 177.561 40ZM177.561 39.1406C177.912 39.1406 178.229 39.0626 178.511 38.9068C178.792 38.746 179.013 38.5249 179.174 38.2434C179.335 37.9569 179.415 37.6378 179.415 37.286C179.415 36.9342 179.335 36.6175 179.174 36.3361C179.013 36.0496 178.792 35.8284 178.511 35.6726C178.229 35.5118 177.912 35.4314 177.561 35.4314C177.209 35.4314 176.892 35.5118 176.611 35.6726C176.329 35.8284 176.108 36.0496 175.947 36.3361C175.786 36.6175 175.706 36.9342 175.706 37.286C175.706 37.6378 175.786 37.9569 175.947 38.2434C176.108 38.5249 176.329 38.746 176.611 38.9068C176.892 39.0626 177.209 39.1406 177.561 39.1406Z" fill="#1D192B"/>
<path d="M185.648 39.9246L184.57 38.3791C184.525 38.3841 184.457 38.3867 184.367 38.3867H183.176V39.9246H182.196V34.6473H184.367C184.824 34.6473 185.221 34.7227 185.558 34.8735C185.9 35.0243 186.161 35.2404 186.342 35.5219C186.523 35.8033 186.613 36.1375 186.613 36.5245C186.613 36.9216 186.515 37.2634 186.319 37.5498C186.128 37.8363 185.852 38.0499 185.49 38.1906L186.704 39.9246H185.648ZM185.626 36.5245C185.626 36.1878 185.515 35.929 185.294 35.748C185.073 35.5671 184.749 35.4766 184.322 35.4766H183.176V37.58H184.322C184.749 37.58 185.073 37.4895 185.294 37.3086C185.515 37.1226 185.626 36.8613 185.626 36.5245Z" fill="#1D192B"/>
<path d="M190.281 37.7157L189.444 38.5751V39.9246H188.464V34.6473H189.444V37.3538L192.052 34.6473H193.153L190.937 37.007L193.289 39.9246H192.143L190.281 37.7157Z" fill="#1D192B"/>
</svg>
