<svg width="512" height="512" viewBox="0 0 512 512" fill="none" xmlns="http://www.w3.org/2000/svg">
<g clip-path="url(#clip0_51328_20386)">
<path d="M313.372 448.658C287.638 491.781 225.178 491.781 199.443 448.658L9.47455 130.332C-16.9135 86.1142 14.9459 30 66.439 30L446.376 30C497.87 30 529.729 86.1142 503.341 130.332L313.372 448.658Z" fill="#FED254"/>
<path d="M306.16 295.348H223.239L264.699 369.977L306.16 295.348Z" fill="#EF314E"/>
<path d="M230.468 115.275L115.441 369.977H190.07L263.78 197.987C264.127 197.179 265.272 197.179 265.619 197.987L339.329 369.977H413.958L307.189 115.375C306.566 113.889 305.111 112.922 303.5 112.922H234.113C232.541 112.922 231.115 113.842 230.468 115.275Z" fill="#1D192B"/>
</g>
<defs>
<clipPath id="clip0_51328_20386">
<rect width="512" height="512" fill="white"/>
</clipPath>
</defs>
</svg>
