<svg width="12" height="14" viewBox="0 0 12 14" fill="none" xmlns="http://www.w3.org/2000/svg">
<mask id="mask0_51953_93" style="mask-type:alpha" maskUnits="userSpaceOnUse" x="0" y="8" width="12" height="6">
<path fill-rule="evenodd" clip-rule="evenodd" d="M0.960693 8.66406H11.5206V13.5801H0.960693V8.66406Z" fill="white"/>
</mask>
<g mask="url(#mask0_51953_93)">
<path fill-rule="evenodd" clip-rule="evenodd" d="M6.24136 9.66406C3.40069 9.66406 1.96069 10.1521 1.96069 11.1154C1.96069 12.0874 3.40069 12.5801 6.24136 12.5801C9.08136 12.5801 10.5207 12.0921 10.5207 11.1287C10.5207 10.1567 9.08136 9.66406 6.24136 9.66406ZM6.24136 13.5801C4.93536 13.5801 0.960693 13.5801 0.960693 11.1154C0.960693 8.91806 3.97469 8.66406 6.24136 8.66406C7.54736 8.66406 11.5207 8.66406 11.5207 11.1287C11.5207 13.3261 8.50736 13.5801 6.24136 13.5801Z" fill="white"/>
</g>
<mask id="mask1_51953_93" style="mask-type:alpha" maskUnits="userSpaceOnUse" x="2" y="0" width="8" height="8">
<path fill-rule="evenodd" clip-rule="evenodd" d="M2.70068 0.333405H9.7807V7.41247H2.70068V0.333405Z" fill="white"/>
</mask>
<g mask="url(#mask1_51953_93)">
<path fill-rule="evenodd" clip-rule="evenodd" d="M6.24137 1.28513C4.81404 1.28513 3.6527 2.4458 3.6527 3.87313C3.64804 5.2958 4.8007 6.4558 6.22204 6.46113L6.24137 6.93713V6.46113C7.66804 6.46113 8.8287 5.2998 8.8287 3.87313C8.8287 2.4458 7.66804 1.28513 6.24137 1.28513ZM6.24137 7.41246H6.22004C4.27204 7.40646 2.69404 5.8178 2.7007 3.87113C2.7007 1.92113 4.2887 0.33313 6.24137 0.33313C8.19337 0.33313 9.7807 1.92113 9.7807 3.87313C9.7807 5.82513 8.19337 7.41246 6.24137 7.41246Z" fill="white"/>
</g>
</svg>
